<svg width="18" height="18" viewBox="0 0 18 18" fill="none" xmlns="http://www.w3.org/2000/svg">
<path d="M9.00006 10.8667L2.46673 17.4C2.22229 17.6444 1.91118 17.7667 1.5334 17.7667C1.15562 17.7667 0.844509 17.6444 0.600065 17.4C0.35562 17.1556 0.233398 16.8444 0.233398 16.4667C0.233398 16.0889 0.35562 15.7778 0.600065 15.5333L7.1334 9L0.600065 2.46667C0.35562 2.22223 0.233398 1.91111 0.233398 1.53334C0.233398 1.15556 0.35562 0.844448 0.600065 0.600004C0.844509 0.355559 1.15562 0.233337 1.5334 0.233337C1.91118 0.233337 2.22229 0.355559 2.46673 0.600004L9.00006 7.13334L15.5334 0.600004C15.7778 0.355559 16.089 0.233337 16.4667 0.233337C16.8445 0.233337 17.1556 0.355559 17.4001 0.600004C17.6445 0.844448 17.7667 1.15556 17.7667 1.53334C17.7667 1.91111 17.6445 2.22223 17.4001 2.46667L10.8667 9L17.4001 15.5333C17.6445 15.7778 17.7667 16.0889 17.7667 16.4667C17.7667 16.8444 17.6445 17.1556 17.4001 17.4C17.1556 17.6444 16.8445 17.7667 16.4667 17.7667C16.089 17.7667 15.7778 17.6444 15.5334 17.4L9.00006 10.8667Z" fill="#FA1239"/>
</svg>
