<svg width="102" height="17" viewBox="0 0 102 17" fill="none" xmlns="http://www.w3.org/2000/svg">
<path d="M8.56088 13.7L4.41088 16.2C4.22754 16.3167 4.03588 16.3667 3.83588 16.35C3.63588 16.3333 3.46088 16.2667 3.31088 16.15C3.16088 16.0333 3.04421 15.8877 2.96088 15.713C2.87754 15.5383 2.86088 15.3423 2.91088 15.125L4.01088 10.4L0.335876 7.225C0.169209 7.075 0.0652091 6.904 0.0238758 6.712C-0.0174575 6.52 -0.00512426 6.33267 0.0608757 6.15C0.126876 5.96733 0.226876 5.81733 0.360876 5.7C0.494876 5.58267 0.678209 5.50767 0.910876 5.475L5.76088 5.05L7.63588 0.6C7.71921 0.4 7.84854 0.25 8.02388 0.15C8.19921 0.0499999 8.37821 0 8.56088 0C8.74354 0 8.92254 0.0499999 9.09788 0.15C9.27321 0.25 9.40254 0.4 9.48588 0.6L11.3609 5.05L16.2109 5.475C16.4442 5.50833 16.6275 5.58333 16.7609 5.7C16.8942 5.81667 16.9942 5.96667 17.0609 6.15C17.1275 6.33333 17.1402 6.521 17.0989 6.713C17.0575 6.905 16.9532 7.07567 16.7859 7.225L13.1109 10.4L14.2109 15.125C14.2609 15.3417 14.2442 15.5377 14.1609 15.713C14.0775 15.8883 13.9609 16.034 13.8109 16.15C13.6609 16.266 13.4859 16.3327 13.2859 16.35C13.0859 16.3673 12.8942 16.3173 12.7109 16.2L8.56088 13.7Z" fill="#FFAB00"/>
<path d="M29.6835 13.7L25.5335 16.2C25.3501 16.3167 25.1585 16.3667 24.9585 16.35C24.7585 16.3333 24.5835 16.2667 24.4335 16.15C24.2835 16.0333 24.1668 15.8877 24.0835 15.713C24.0001 15.5383 23.9835 15.3423 24.0335 15.125L25.1335 10.4L21.4585 7.225C21.2918 7.075 21.1878 6.904 21.1465 6.712C21.1051 6.52 21.1175 6.33267 21.1835 6.15C21.2495 5.96733 21.3495 5.81733 21.4835 5.7C21.6175 5.58267 21.8008 5.50767 22.0335 5.475L26.8835 5.05L28.7585 0.6C28.8418 0.4 28.9711 0.25 29.1465 0.15C29.3218 0.0499999 29.5008 0 29.6835 0C29.8661 0 30.0451 0.0499999 30.2205 0.15C30.3958 0.25 30.5251 0.4 30.6085 0.6L32.4835 5.05L37.3335 5.475C37.5668 5.50833 37.7501 5.58333 37.8835 5.7C38.0168 5.81667 38.1168 5.96667 38.1835 6.15C38.2501 6.33333 38.2628 6.521 38.2215 6.713C38.1801 6.905 38.0758 7.07567 37.9085 7.225L34.2335 10.4L35.3335 15.125C35.3835 15.3417 35.3668 15.5377 35.2835 15.713C35.2001 15.8883 35.0835 16.034 34.9335 16.15C34.7835 16.266 34.6085 16.3327 34.4085 16.35C34.2085 16.3673 34.0168 16.3173 33.8335 16.2L29.6835 13.7Z" fill="#FFAB00"/>
<path d="M50.8061 13.7L46.6561 16.2C46.4728 16.3167 46.2811 16.3667 46.0811 16.35C45.8811 16.3333 45.7061 16.2667 45.5561 16.15C45.4061 16.0333 45.2894 15.8877 45.2061 15.713C45.1228 15.5383 45.1061 15.3423 45.1561 15.125L46.2561 10.4L42.5811 7.225C42.4144 7.075 42.3104 6.904 42.2691 6.712C42.2278 6.52 42.2401 6.33267 42.3061 6.15C42.3721 5.96733 42.4721 5.81733 42.6061 5.7C42.7401 5.58267 42.9234 5.50767 43.1561 5.475L48.0061 5.05L49.8811 0.6C49.9644 0.4 50.0938 0.25 50.2691 0.15C50.4444 0.0499999 50.6234 0 50.8061 0C50.9888 0 51.1678 0.0499999 51.3431 0.15C51.5184 0.25 51.6478 0.4 51.7311 0.6L53.6061 5.05L58.4561 5.475C58.6894 5.50833 58.8728 5.58333 59.0061 5.7C59.1394 5.81667 59.2394 5.96667 59.3061 6.15C59.3728 6.33333 59.3854 6.521 59.3441 6.713C59.3027 6.905 59.1984 7.07567 59.0311 7.225L55.3561 10.4L56.4561 15.125C56.5061 15.3417 56.4894 15.5377 56.4061 15.713C56.3228 15.8883 56.2061 16.034 56.0561 16.15C55.9061 16.266 55.7311 16.3327 55.5311 16.35C55.3311 16.3673 55.1394 16.3173 54.9561 16.2L50.8061 13.7Z" fill="#FFAB00"/>
<path d="M71.9287 13.7L67.7787 16.2C67.5954 16.3167 67.4037 16.3667 67.2037 16.35C67.0037 16.3333 66.8287 16.2667 66.6787 16.15C66.5287 16.0333 66.412 15.8877 66.3287 15.713C66.2454 15.5383 66.2287 15.3423 66.2787 15.125L67.3787 10.4L63.7037 7.225C63.537 7.075 63.433 6.904 63.3917 6.712C63.3504 6.52 63.3627 6.33267 63.4287 6.15C63.4947 5.96733 63.5947 5.81733 63.7287 5.7C63.8627 5.58267 64.046 5.50767 64.2787 5.475L69.1287 5.05L71.0037 0.6C71.087 0.4 71.2164 0.25 71.3917 0.15C71.567 0.0499999 71.746 0 71.9287 0C72.1114 0 72.2904 0.0499999 72.4657 0.15C72.641 0.25 72.7704 0.4 72.8537 0.6L74.7287 5.05L79.5787 5.475C79.812 5.50833 79.9954 5.58333 80.1287 5.7C80.262 5.81667 80.362 5.96667 80.4287 6.15C80.4954 6.33333 80.508 6.521 80.4667 6.713C80.4254 6.905 80.321 7.07567 80.1537 7.225L76.4787 10.4L77.5787 15.125C77.6287 15.3417 77.612 15.5377 77.5287 15.713C77.4454 15.8883 77.3287 16.034 77.1787 16.15C77.0287 16.266 76.8537 16.3327 76.6537 16.35C76.4537 16.3673 76.262 16.3173 76.0787 16.2L71.9287 13.7Z" fill="#FFAB00"/>
<path d="M93.0513 13.7L88.9013 16.2C88.718 16.3167 88.5263 16.3667 88.3263 16.35C88.1263 16.3333 87.9513 16.2667 87.8013 16.15C87.6513 16.0333 87.5346 15.8877 87.4513 15.713C87.368 15.5383 87.3513 15.3423 87.4013 15.125L88.5013 10.4L84.8263 7.225C84.6596 7.075 84.5556 6.904 84.5143 6.712C84.473 6.52 84.4853 6.33267 84.5513 6.15C84.6173 5.96733 84.7173 5.81733 84.8513 5.7C84.9853 5.58267 85.1686 5.50767 85.4013 5.475L90.2513 5.05L92.1263 0.6C92.2096 0.4 92.339 0.25 92.5143 0.15C92.6896 0.0499999 92.8686 0 93.0513 0C93.234 0 93.413 0.0499999 93.5883 0.15C93.7636 0.25 93.893 0.4 93.9763 0.6L95.8513 5.05L100.701 5.475C100.935 5.50833 101.118 5.58333 101.251 5.7C101.385 5.81667 101.485 5.96667 101.551 6.15C101.618 6.33333 101.631 6.521 101.589 6.713C101.548 6.905 101.444 7.07567 101.276 7.225L97.6013 10.4L98.7013 15.125C98.7513 15.3417 98.7346 15.5377 98.6513 15.713C98.568 15.8883 98.4513 16.034 98.3013 16.15C98.1513 16.266 97.9763 16.3327 97.7763 16.35C97.5763 16.3673 97.3846 16.3173 97.2013 16.2L93.0513 13.7Z" fill="#FFAB00"/>
</svg>
