<svg width="621" height="252" viewBox="0 0 621 252" fill="none" xmlns="http://www.w3.org/2000/svg">
<path d="M25.832 42.504L17.576 40.392L31.976 16.2H41.96L25.832 42.504ZM17.32 61V39.496H26.088V61H17.32ZM17.576 42.504L1.448 16.2H11.432L25.832 40.392L17.576 42.504ZM55.6255 61.768C52.3828 61.768 49.4815 61.064 46.9215 59.656C44.4042 58.2053 42.4202 56.2213 40.9695 53.704C39.5615 51.1867 38.8575 48.2853 38.8575 45C38.8575 41.7147 39.5615 38.8133 40.9695 36.296C42.3775 33.7787 44.3402 31.816 46.8575 30.408C49.3748 28.9573 52.2548 28.232 55.4975 28.232C58.7828 28.232 61.6842 28.9573 64.2015 30.408C66.7188 31.816 68.6815 33.7787 70.0895 36.296C71.4975 38.8133 72.2015 41.7147 72.2015 45C72.2015 48.2853 71.4975 51.1867 70.0895 53.704C68.6815 56.2213 66.7188 58.2053 64.2015 59.656C61.7268 61.064 58.8682 61.768 55.6255 61.768ZM55.6255 53.96C57.2042 53.96 58.5908 53.576 59.7855 52.808C60.9802 52.04 61.8975 50.9947 62.5375 49.672C63.2202 48.3067 63.5615 46.7493 63.5615 45C63.5615 43.2507 63.2202 41.7147 62.5375 40.392C61.8548 39.0267 60.8948 37.96 59.6575 37.192C58.4628 36.424 57.0762 36.04 55.4975 36.04C53.9615 36.04 52.5748 36.424 51.3375 37.192C50.1428 37.96 49.2042 39.0267 48.5215 40.392C47.8388 41.7147 47.4975 43.2507 47.4975 45C47.4975 46.7493 47.8388 48.3067 48.5215 49.672C49.2042 50.9947 50.1642 52.04 51.4015 52.808C52.6388 53.576 54.0468 53.96 55.6255 53.96ZM98.893 61L98.381 55.112V29H106.829V61H98.893ZM77.197 45.384V29H85.645V45.384H77.197ZM85.645 45.384C85.645 47.5173 85.8797 49.2027 86.349 50.44C86.861 51.6347 87.565 52.5093 88.461 53.064C89.3997 53.576 90.445 53.832 91.597 53.832C93.8157 53.8747 95.501 53.2133 96.653 51.848C97.805 50.44 98.381 48.4133 98.381 45.768H101.261C101.261 49.1813 100.749 52.0827 99.725 54.472C98.701 56.8187 97.293 58.632 95.501 59.912C93.709 61.1493 91.597 61.768 89.165 61.768C86.605 61.768 84.429 61.256 82.637 60.232C80.845 59.208 79.4797 57.6293 78.541 55.496C77.645 53.32 77.197 50.5253 77.197 47.112V45.384H85.645ZM120.1 44.168C120.1 40.712 120.761 37.8533 122.084 35.592C123.449 33.3307 125.177 31.6453 127.268 30.536C129.401 29.4267 131.62 28.872 133.924 28.872V37.064C131.961 37.064 130.105 37.2987 128.356 37.768C126.649 38.2373 125.263 39.0053 124.196 40.072C123.129 41.1387 122.596 42.504 122.596 44.168H120.1ZM114.148 61V29H122.596V61H114.148ZM154.864 61V16.2H171.504C174.661 16.2 177.456 16.8187 179.888 18.056C182.32 19.2933 184.219 21 185.584 23.176C186.949 25.3093 187.632 27.8053 187.632 30.664C187.632 33.48 186.907 35.9973 185.456 38.216C184.048 40.392 182.107 42.0987 179.632 43.336C177.157 44.5307 174.341 45.128 171.184 45.128H163.632V61H154.864ZM179.504 61L169.136 43.016L175.856 38.216L189.424 61H179.504ZM163.632 37.128H171.568C172.891 37.128 174.064 36.8507 175.088 36.296C176.155 35.7413 176.987 34.9733 177.584 33.992C178.224 33.0107 178.544 31.9013 178.544 30.664C178.544 28.744 177.84 27.1867 176.432 25.992C175.067 24.7973 173.296 24.2 171.12 24.2H163.632V37.128ZM209.362 61.768C206.205 61.768 203.41 61.064 200.978 59.656C198.546 58.2053 196.626 56.2213 195.218 53.704C193.853 51.1867 193.17 48.2853 193.17 45C193.17 41.7147 193.874 38.8133 195.282 36.296C196.733 33.7787 198.695 31.816 201.17 30.408C203.687 28.9573 206.567 28.232 209.81 28.232C212.626 28.232 215.207 28.9787 217.554 30.472C219.943 31.9227 221.842 34.0773 223.25 36.936C224.701 39.752 225.426 43.1867 225.426 47.24H201.17L201.938 46.472C201.938 48.0507 202.322 49.4373 203.09 50.632C203.901 51.784 204.925 52.68 206.162 53.32C207.442 53.9173 208.807 54.216 210.258 54.216C212.007 54.216 213.437 53.8533 214.546 53.128C215.655 52.36 216.509 51.3787 217.106 50.184L224.658 53.128C223.762 54.92 222.589 56.4773 221.138 57.8C219.73 59.08 218.045 60.0613 216.082 60.744C214.119 61.4267 211.879 61.768 209.362 61.768ZM202.386 41.736L201.618 40.968H217.042L216.338 41.736C216.338 40.2 215.975 38.984 215.25 38.088C214.525 37.1493 213.629 36.4667 212.562 36.04C211.538 35.6133 210.535 35.4 209.554 35.4C208.573 35.4 207.527 35.6133 206.418 36.04C205.309 36.4667 204.349 37.1493 203.538 38.088C202.77 38.984 202.386 40.2 202.386 41.736ZM242.304 61.768C240.256 61.768 238.336 61.4693 236.544 60.872C234.752 60.232 233.173 59.336 231.808 58.184C230.442 56.9893 229.376 55.5387 228.608 53.832L235.84 50.504C236.48 51.528 237.354 52.424 238.464 53.192C239.573 53.9173 240.853 54.28 242.304 54.28C243.712 54.28 244.8 54.088 245.568 53.704C246.336 53.2773 246.72 52.68 246.72 51.912C246.72 51.144 246.4 50.5893 245.76 50.248C245.162 49.864 244.33 49.544 243.264 49.288L240.32 48.52C237.248 47.7093 234.816 46.4293 233.024 44.68C231.274 42.888 230.4 40.84 230.4 38.536C230.4 35.2507 231.445 32.712 233.536 30.92C235.669 29.128 238.677 28.232 242.56 28.232C244.565 28.232 246.421 28.5307 248.128 29.128C249.877 29.7253 251.37 30.5573 252.608 31.624C253.845 32.6907 254.698 33.928 255.168 35.336L248.192 38.536C247.893 37.6827 247.168 37 246.016 36.488C244.864 35.9333 243.712 35.656 242.56 35.656C241.408 35.656 240.512 35.912 239.872 36.424C239.274 36.8933 238.976 37.5547 238.976 38.408C238.976 38.9627 239.274 39.432 239.872 39.816C240.469 40.1573 241.322 40.456 242.432 40.712L246.592 41.736C248.682 42.248 250.346 43.08 251.584 44.232C252.864 45.3413 253.781 46.6 254.336 48.008C254.933 49.3733 255.232 50.7173 255.232 52.04C255.232 53.96 254.656 55.6667 253.504 57.16C252.394 58.6107 250.858 59.7413 248.896 60.552C246.976 61.3627 244.778 61.768 242.304 61.768ZM281.268 61L280.756 55.112V29H289.204V61H281.268ZM259.572 45.384V29H268.02V45.384H259.572ZM268.02 45.384C268.02 47.5173 268.255 49.2027 268.724 50.44C269.236 51.6347 269.94 52.5093 270.836 53.064C271.775 53.576 272.82 53.832 273.972 53.832C276.191 53.8747 277.876 53.2133 279.028 51.848C280.18 50.44 280.756 48.4133 280.756 45.768H283.636C283.636 49.1813 283.124 52.0827 282.1 54.472C281.076 56.8187 279.668 58.632 277.876 59.912C276.084 61.1493 273.972 61.768 271.54 61.768C268.98 61.768 266.804 61.256 265.012 60.232C263.22 59.208 261.855 57.6293 260.916 55.496C260.02 53.32 259.572 50.5253 259.572 47.112V45.384H268.02ZM296.523 61V29H304.459L304.843 33.16C305.824 31.5387 307.083 30.3227 308.619 29.512C310.155 28.6587 311.862 28.232 313.739 28.232C316.342 28.232 318.518 28.7867 320.267 29.896C322.059 31.0053 323.36 32.712 324.171 35.016C325.11 32.84 326.432 31.176 328.139 30.024C329.846 28.8293 331.83 28.232 334.091 28.232C337.846 28.232 340.704 29.4267 342.667 31.816C344.63 34.1627 345.611 37.7893 345.611 42.696V61H337.163V44.616C337.163 42.44 336.928 40.7547 336.459 39.56C335.99 38.3653 335.35 37.512 334.539 37C333.728 36.4453 332.768 36.168 331.659 36.168C329.611 36.1253 328.032 36.7867 326.923 38.152C325.814 39.5173 325.259 41.544 325.259 44.232V61H316.811V44.616C316.811 42.44 316.576 40.7547 316.107 39.56C315.68 38.3653 315.04 37.512 314.187 37C313.376 36.4453 312.416 36.168 311.307 36.168C309.259 36.1253 307.68 36.7867 306.571 38.152C305.504 39.5173 304.971 41.544 304.971 44.232V61H296.523ZM366.8 61.768C363.642 61.768 360.848 61.064 358.416 59.656C355.984 58.2053 354.064 56.2213 352.656 53.704C351.29 51.1867 350.608 48.2853 350.608 45C350.608 41.7147 351.312 38.8133 352.72 36.296C354.17 33.7787 356.133 31.816 358.608 30.408C361.125 28.9573 364.005 28.232 367.248 28.232C370.064 28.232 372.645 28.9787 374.992 30.472C377.381 31.9227 379.28 34.0773 380.688 36.936C382.138 39.752 382.864 43.1867 382.864 47.24H358.608L359.376 46.472C359.376 48.0507 359.76 49.4373 360.528 50.632C361.338 51.784 362.362 52.68 363.6 53.32C364.88 53.9173 366.245 54.216 367.696 54.216C369.445 54.216 370.874 53.8533 371.984 53.128C373.093 52.36 373.946 51.3787 374.544 50.184L382.096 53.128C381.2 54.92 380.026 56.4773 378.576 57.8C377.168 59.08 375.482 60.0613 373.52 60.744C371.557 61.4267 369.317 61.768 366.8 61.768ZM359.824 41.736L359.056 40.968H374.48L373.776 41.736C373.776 40.2 373.413 38.984 372.688 38.088C371.962 37.1493 371.066 36.4667 370 36.04C368.976 35.6133 367.973 35.4 366.992 35.4C366.01 35.4 364.965 35.6133 363.856 36.04C362.746 36.4667 361.786 37.1493 360.976 38.088C360.208 38.984 359.824 40.2 359.824 41.736ZM468.052 146V101.2H476.82V138H496.532V146H468.052ZM515.675 146.768C512.517 146.768 509.723 146.064 507.291 144.656C504.859 143.205 502.939 141.221 501.531 138.704C500.165 136.187 499.483 133.285 499.483 130C499.483 126.715 500.187 123.813 501.595 121.296C503.045 118.779 505.008 116.816 507.483 115.408C510 113.957 512.88 113.232 516.123 113.232C518.939 113.232 521.52 113.979 523.867 115.472C526.256 116.923 528.155 119.077 529.562 121.936C531.013 124.752 531.739 128.187 531.739 132.24H507.483L508.251 131.472C508.251 133.051 508.635 134.437 509.403 135.632C510.213 136.784 511.237 137.68 512.475 138.32C513.755 138.917 515.12 139.216 516.571 139.216C518.32 139.216 519.749 138.853 520.859 138.128C521.968 137.36 522.821 136.379 523.419 135.184L530.971 138.128C530.075 139.92 528.901 141.477 527.451 142.8C526.043 144.08 524.357 145.061 522.395 145.744C520.432 146.427 518.192 146.768 515.675 146.768ZM508.699 126.736L507.931 125.968H523.355L522.651 126.736C522.651 125.2 522.288 123.984 521.563 123.088C520.837 122.149 519.941 121.467 518.875 121.04C517.851 120.613 516.848 120.4 515.867 120.4C514.885 120.4 513.84 120.613 512.731 121.04C511.621 121.467 510.661 122.149 509.851 123.088C509.083 123.984 508.699 125.2 508.699 126.736ZM549.832 146.768C546.291 146.768 543.603 145.893 541.768 144.144C539.976 142.395 539.08 139.899 539.08 136.656V104.016H547.528V134.8C547.528 136.165 547.827 137.211 548.424 137.936C549.021 138.619 549.896 138.96 551.048 138.96C551.475 138.96 551.944 138.875 552.456 138.704C552.968 138.491 553.501 138.192 554.056 137.808L557 144.144C555.976 144.912 554.824 145.531 553.544 146C552.307 146.512 551.069 146.768 549.832 146.768ZM533.896 121.168V114H555.528V121.168H533.896ZM559.582 116.304L563.486 101.2H572.254L565.982 116.304H559.582ZM582.991 146.768C580.943 146.768 579.023 146.469 577.231 145.872C575.439 145.232 573.86 144.336 572.495 143.184C571.13 141.989 570.063 140.539 569.295 138.832L576.527 135.504C577.167 136.528 578.042 137.424 579.151 138.192C580.26 138.917 581.54 139.28 582.991 139.28C584.399 139.28 585.487 139.088 586.255 138.704C587.023 138.277 587.407 137.68 587.407 136.912C587.407 136.144 587.087 135.589 586.447 135.248C585.85 134.864 585.018 134.544 583.951 134.288L581.007 133.52C577.935 132.709 575.503 131.429 573.711 129.68C571.962 127.888 571.087 125.84 571.087 123.536C571.087 120.251 572.132 117.712 574.223 115.92C576.356 114.128 579.364 113.232 583.247 113.232C585.252 113.232 587.108 113.531 588.815 114.128C590.564 114.725 592.058 115.557 593.295 116.624C594.532 117.691 595.386 118.928 595.855 120.336L588.879 123.536C588.58 122.683 587.855 122 586.703 121.488C585.551 120.933 584.399 120.656 583.247 120.656C582.095 120.656 581.199 120.912 580.559 121.424C579.962 121.893 579.663 122.555 579.663 123.408C579.663 123.963 579.962 124.432 580.559 124.816C581.156 125.157 582.01 125.456 583.119 125.712L587.279 126.736C589.37 127.248 591.034 128.08 592.271 129.232C593.551 130.341 594.468 131.6 595.023 133.008C595.62 134.373 595.919 135.717 595.919 137.04C595.919 138.96 595.343 140.667 594.191 142.16C593.082 143.611 591.546 144.741 589.583 145.552C587.663 146.363 585.466 146.768 582.991 146.768ZM5.864 231V186.2H15.4L28.456 205.528L41.512 186.2H50.984V231H42.28V199.896L28.456 220.248L14.632 199.96V231H5.864ZM78.851 231L78.595 224.536V214.808C78.595 212.888 78.3817 211.245 77.955 209.88C77.571 208.515 76.931 207.469 76.035 206.744C75.1817 205.976 74.0083 205.592 72.515 205.592C71.1497 205.592 69.9123 205.891 68.803 206.488C67.6937 207.085 66.755 208.003 65.987 209.24L58.563 206.68C59.1603 205.315 60.035 203.992 61.187 202.712C62.339 201.389 63.8323 200.323 65.667 199.512C67.5443 198.659 69.827 198.232 72.515 198.232C75.7577 198.232 78.4457 198.851 80.579 200.088C82.755 201.325 84.355 203.075 85.379 205.336C86.4457 207.555 86.9577 210.2 86.915 213.272L86.723 231H78.851ZM69.891 231.768C66.051 231.768 63.0643 230.915 60.931 229.208C58.8403 227.501 57.795 225.091 57.795 221.976C57.795 218.563 58.9257 216.003 61.187 214.296C63.491 212.547 66.7123 211.672 70.851 211.672H78.979V217.944H73.795C71.0217 217.944 69.1017 218.285 68.035 218.968C66.9683 219.608 66.435 220.525 66.435 221.72C66.435 222.659 66.8617 223.405 67.715 223.96C68.5683 224.472 69.763 224.728 71.299 224.728C72.707 224.728 73.9443 224.408 75.011 223.768C76.1203 223.085 76.995 222.232 77.635 221.208C78.275 220.141 78.595 219.053 78.595 217.944H80.643C80.643 222.296 79.811 225.688 78.147 228.12C76.5257 230.552 73.7737 231.768 69.891 231.768ZM101.712 222.872L96.656 217.048L113.04 199H123.088L101.712 222.872ZM93.648 231V186.2H102.096V231H93.648ZM114.128 231L103.504 215.512L109.008 209.688L124.048 231H114.128ZM140.862 231.768C137.705 231.768 134.91 231.064 132.478 229.656C130.046 228.205 128.126 226.221 126.718 223.704C125.353 221.187 124.67 218.285 124.67 215C124.67 211.715 125.374 208.813 126.782 206.296C128.233 203.779 130.195 201.816 132.67 200.408C135.187 198.957 138.067 198.232 141.31 198.232C144.126 198.232 146.707 198.979 149.054 200.472C151.443 201.923 153.342 204.077 154.75 206.936C156.201 209.752 156.926 213.187 156.926 217.24H132.67L133.438 216.472C133.438 218.051 133.822 219.437 134.59 220.632C135.401 221.784 136.425 222.68 137.662 223.32C138.942 223.917 140.307 224.216 141.758 224.216C143.507 224.216 144.937 223.853 146.046 223.128C147.155 222.36 148.009 221.379 148.606 220.184L156.158 223.128C155.262 224.92 154.089 226.477 152.638 227.8C151.23 229.08 149.545 230.061 147.582 230.744C145.619 231.427 143.379 231.768 140.862 231.768ZM133.886 211.736L133.118 210.968H148.542L147.838 211.736C147.838 210.2 147.475 208.984 146.75 208.088C146.025 207.149 145.129 206.467 144.062 206.04C143.038 205.613 142.035 205.4 141.054 205.4C140.073 205.4 139.027 205.613 137.918 206.04C136.809 206.467 135.849 207.149 135.038 208.088C134.27 208.984 133.886 210.2 133.886 211.736ZM178.302 231V186.2H187.07V231H178.302ZM208.77 231.768C205.228 231.768 202.54 230.893 200.706 229.144C198.914 227.395 198.018 224.899 198.018 221.656V189.016H206.466V219.8C206.466 221.165 206.764 222.211 207.362 222.936C207.959 223.619 208.834 223.96 209.986 223.96C210.412 223.96 210.882 223.875 211.394 223.704C211.906 223.491 212.439 223.192 212.994 222.808L215.938 229.144C214.914 229.912 213.762 230.531 212.482 231C211.244 231.512 210.007 231.768 208.77 231.768ZM192.834 206.168V199H214.466V206.168H192.834ZM267.306 231V186.2H276.074V231H267.306ZM237.802 231V186.136H246.57V231H237.802ZM244.33 212.12V204.056H271.466V212.12H244.33ZM303.914 231L303.658 224.536V214.808C303.658 212.888 303.444 211.245 303.018 209.88C302.634 208.515 301.994 207.469 301.098 206.744C300.244 205.976 299.071 205.592 297.578 205.592C296.212 205.592 294.975 205.891 293.866 206.488C292.756 207.085 291.818 208.003 291.05 209.24L283.626 206.68C284.223 205.315 285.098 203.992 286.25 202.712C287.402 201.389 288.895 200.323 290.73 199.512C292.607 198.659 294.89 198.232 297.578 198.232C300.82 198.232 303.508 198.851 305.642 200.088C307.818 201.325 309.418 203.075 310.442 205.336C311.508 207.555 312.02 210.2 311.978 213.272L311.786 231H303.914ZM294.954 231.768C291.114 231.768 288.127 230.915 285.994 229.208C283.903 227.501 282.858 225.091 282.858 221.976C282.858 218.563 283.988 216.003 286.25 214.296C288.554 212.547 291.775 211.672 295.914 211.672H304.042V217.944H298.858C296.084 217.944 294.164 218.285 293.098 218.968C292.031 219.608 291.498 220.525 291.498 221.72C291.498 222.659 291.924 223.405 292.778 223.96C293.631 224.472 294.826 224.728 296.362 224.728C297.77 224.728 299.007 224.408 300.074 223.768C301.183 223.085 302.058 222.232 302.698 221.208C303.338 220.141 303.658 219.053 303.658 217.944H305.706C305.706 222.296 304.874 225.688 303.21 228.12C301.588 230.552 298.836 231.768 294.954 231.768ZM319.031 243.8V199H326.967L327.479 204.888V243.8H319.031ZM337.143 231.768C334.455 231.768 332.172 231.085 330.295 229.72C328.46 228.355 327.052 226.413 326.071 223.896C325.089 221.379 324.599 218.413 324.599 215C324.599 211.544 325.089 208.579 326.071 206.104C327.052 203.587 328.46 201.645 330.295 200.28C332.172 198.915 334.455 198.232 337.143 198.232C340.087 198.232 342.625 198.915 344.759 200.28C346.935 201.645 348.62 203.587 349.815 206.104C351.009 208.579 351.607 211.544 351.607 215C351.607 218.413 351.009 221.379 349.815 223.896C348.62 226.413 346.935 228.355 344.759 229.72C342.625 231.085 340.087 231.768 337.143 231.768ZM334.967 224.024C336.503 224.024 337.847 223.64 338.999 222.872C340.193 222.104 341.132 221.037 341.815 219.672C342.497 218.307 342.839 216.749 342.839 215C342.839 213.251 342.497 211.693 341.815 210.328C341.175 208.963 340.257 207.917 339.063 207.192C337.911 206.424 336.567 206.04 335.031 206.04C333.58 206.04 332.279 206.424 331.127 207.192C329.975 207.96 329.079 209.027 328.439 210.392C327.799 211.715 327.479 213.251 327.479 215C327.479 216.749 327.799 218.307 328.439 219.672C329.079 221.037 329.953 222.104 331.062 222.872C332.215 223.64 333.516 224.024 334.967 224.024ZM357.468 243.8V199H365.404L365.916 204.888V243.8H357.468ZM375.58 231.768C372.892 231.768 370.609 231.085 368.732 229.72C366.897 228.355 365.489 226.413 364.508 223.896C363.527 221.379 363.036 218.413 363.036 215C363.036 211.544 363.527 208.579 364.508 206.104C365.489 203.587 366.897 201.645 368.732 200.28C370.609 198.915 372.892 198.232 375.58 198.232C378.524 198.232 381.063 198.915 383.196 200.28C385.372 201.645 387.057 203.587 388.252 206.104C389.447 208.579 390.044 211.544 390.044 215C390.044 218.413 389.447 221.379 388.252 223.896C387.057 226.413 385.372 228.355 383.196 229.72C381.063 231.085 378.524 231.768 375.58 231.768ZM373.404 224.024C374.94 224.024 376.284 223.64 377.436 222.872C378.631 222.104 379.569 221.037 380.252 219.672C380.935 218.307 381.276 216.749 381.276 215C381.276 213.251 380.935 211.693 380.252 210.328C379.612 208.963 378.695 207.917 377.5 207.192C376.348 206.424 375.004 206.04 373.468 206.04C372.017 206.04 370.716 206.424 369.564 207.192C368.412 207.96 367.516 209.027 366.876 210.392C366.236 211.715 365.916 213.251 365.916 215C365.916 216.749 366.236 218.307 366.876 219.672C367.516 221.037 368.391 222.104 369.5 222.872C370.652 223.64 371.953 224.024 373.404 224.024ZM410.05 231.768C406.892 231.768 404.098 231.064 401.666 229.656C399.234 228.205 397.314 226.221 395.906 223.704C394.54 221.187 393.858 218.285 393.858 215C393.858 211.715 394.562 208.813 395.97 206.296C397.42 203.779 399.383 201.816 401.858 200.408C404.375 198.957 407.255 198.232 410.498 198.232C413.314 198.232 415.895 198.979 418.242 200.472C420.631 201.923 422.53 204.077 423.938 206.936C425.388 209.752 426.114 213.187 426.114 217.24H401.858L402.626 216.472C402.626 218.051 403.01 219.437 403.778 220.632C404.588 221.784 405.612 222.68 406.85 223.32C408.13 223.917 409.495 224.216 410.946 224.216C412.695 224.216 414.124 223.853 415.234 223.128C416.343 222.36 417.196 221.379 417.794 220.184L425.346 223.128C424.45 224.92 423.276 226.477 421.826 227.8C420.418 229.08 418.732 230.061 416.77 230.744C414.807 231.427 412.567 231.768 410.05 231.768ZM403.074 211.736L402.306 210.968H417.73L417.026 211.736C417.026 210.2 416.663 208.984 415.938 208.088C415.212 207.149 414.316 206.467 413.25 206.04C412.226 205.613 411.223 205.4 410.242 205.4C409.26 205.4 408.215 205.613 407.106 206.04C405.996 206.467 405.036 207.149 404.226 208.088C403.458 208.984 403.074 210.2 403.074 211.736ZM431.023 231V199H438.959L439.471 204.888V231H431.023ZM452.207 231V214.616H460.655V231H452.207ZM452.207 214.616C452.207 212.44 451.951 210.755 451.439 209.56C450.97 208.365 450.287 207.512 449.391 207C448.495 206.445 447.45 206.168 446.255 206.168C444.079 206.125 442.394 206.787 441.199 208.152C440.047 209.517 439.471 211.544 439.471 214.232H436.655C436.655 210.819 437.146 207.939 438.127 205.592C439.151 203.203 440.559 201.389 442.351 200.152C444.186 198.872 446.319 198.232 448.751 198.232C451.268 198.232 453.423 198.744 455.215 199.768C457.007 200.792 458.372 202.392 459.311 204.568C460.25 206.701 460.698 209.475 460.655 212.888V214.616H452.207Z" fill="black"/>
<path d="M5.864 146V101.2H20.2C24.7653 101.2 28.7973 102.16 32.296 104.08C35.8373 106 38.5893 108.645 40.552 112.016C42.5573 115.344 43.56 119.205 43.56 123.6C43.56 127.952 42.5573 131.813 40.552 135.184C38.5893 138.555 35.8373 141.2 32.296 143.12C28.7973 145.04 24.7653 146 20.2 146H5.864ZM14.632 137.808H20.2C22.248 137.808 24.1467 137.445 25.896 136.72C27.6453 135.995 29.16 134.992 30.44 133.712C31.7627 132.432 32.7867 130.939 33.512 129.232C34.2373 127.483 34.6 125.605 34.6 123.6C34.6 121.595 34.2373 119.739 33.512 118.032C32.7867 116.283 31.7627 114.768 30.44 113.488C29.16 112.208 27.6453 111.205 25.896 110.48C24.1467 109.755 22.248 109.392 20.2 109.392H14.632V137.808ZM63.9245 146.768C60.7672 146.768 57.9725 146.064 55.5405 144.656C53.1085 143.205 51.1885 141.221 49.7805 138.704C48.4152 136.187 47.7325 133.285 47.7325 130C47.7325 126.715 48.4365 123.813 49.8445 121.296C51.2952 118.779 53.2578 116.816 55.7325 115.408C58.2498 113.957 61.1298 113.232 64.3725 113.232C67.1885 113.232 69.7698 113.979 72.1165 115.472C74.5058 116.923 76.4045 119.077 77.8125 121.936C79.2632 124.752 79.9885 128.187 79.9885 132.24H55.7325L56.5005 131.472C56.5005 133.051 56.8845 134.437 57.6525 135.632C58.4632 136.784 59.4872 137.68 60.7245 138.32C62.0045 138.917 63.3698 139.216 64.8205 139.216C66.5698 139.216 67.9992 138.853 69.1085 138.128C70.2178 137.36 71.0712 136.379 71.6685 135.184L79.2205 138.128C78.3245 139.92 77.1512 141.477 75.7005 142.8C74.2925 144.08 72.6072 145.061 70.6445 145.744C68.6818 146.427 66.4418 146.768 63.9245 146.768ZM56.9485 126.736L56.1805 125.968H71.6045L70.9005 126.736C70.9005 125.2 70.5378 123.984 69.8125 123.088C69.0872 122.149 68.1912 121.467 67.1245 121.04C66.1005 120.613 65.0978 120.4 64.1165 120.4C63.1352 120.4 62.0898 120.613 60.9805 121.04C59.8712 121.467 58.9112 122.149 58.1005 123.088C57.3325 123.984 56.9485 125.2 56.9485 126.736ZM96.866 146.768C94.818 146.768 92.898 146.469 91.106 145.872C89.314 145.232 87.7353 144.336 86.37 143.184C85.0047 141.989 83.938 140.539 83.17 138.832L90.402 135.504C91.042 136.528 91.9167 137.424 93.026 138.192C94.1353 138.917 95.4153 139.28 96.866 139.28C98.274 139.28 99.362 139.088 100.13 138.704C100.898 138.277 101.282 137.68 101.282 136.912C101.282 136.144 100.962 135.589 100.322 135.248C99.7247 134.864 98.8927 134.544 97.826 134.288L94.882 133.52C91.81 132.709 89.378 131.429 87.586 129.68C85.8367 127.888 84.962 125.84 84.962 123.536C84.962 120.251 86.0073 117.712 88.098 115.92C90.2313 114.128 93.2393 113.232 97.122 113.232C99.1273 113.232 100.983 113.531 102.69 114.128C104.439 114.725 105.933 115.557 107.17 116.624C108.407 117.691 109.261 118.928 109.73 120.336L102.754 123.536C102.455 122.683 101.73 122 100.578 121.488C99.426 120.933 98.274 120.656 97.122 120.656C95.97 120.656 95.074 120.912 94.434 121.424C93.8367 121.893 93.538 122.555 93.538 123.408C93.538 123.963 93.8367 124.432 94.434 124.816C95.0313 125.157 95.8847 125.456 96.994 125.712L101.154 126.736C103.245 127.248 104.909 128.08 106.146 129.232C107.426 130.341 108.343 131.6 108.898 133.008C109.495 134.373 109.794 135.717 109.794 137.04C109.794 138.96 109.218 140.667 108.066 142.16C106.957 143.611 105.421 144.741 103.458 145.552C101.538 146.363 99.3407 146.768 96.866 146.768ZM129.175 146.768C126.017 146.768 123.223 146.064 120.791 144.656C118.359 143.205 116.439 141.221 115.031 138.704C113.665 136.187 112.983 133.285 112.983 130C112.983 126.715 113.687 123.813 115.095 121.296C116.545 118.779 118.508 116.816 120.983 115.408C123.5 113.957 126.38 113.232 129.623 113.232C132.439 113.232 135.02 113.979 137.367 115.472C139.756 116.923 141.655 119.077 143.062 121.936C144.513 124.752 145.239 128.187 145.239 132.24H120.983L121.751 131.472C121.751 133.051 122.135 134.437 122.903 135.632C123.713 136.784 124.737 137.68 125.975 138.32C127.255 138.917 128.62 139.216 130.071 139.216C131.82 139.216 133.249 138.853 134.359 138.128C135.468 137.36 136.321 136.379 136.919 135.184L144.471 138.128C143.575 139.92 142.401 141.477 140.951 142.8C139.543 144.08 137.857 145.061 135.895 145.744C133.932 146.427 131.692 146.768 129.175 146.768ZM122.199 126.736L121.431 125.968H136.855L136.151 126.736C136.151 125.2 135.788 123.984 135.063 123.088C134.337 122.149 133.441 121.467 132.375 121.04C131.351 120.613 130.348 120.4 129.367 120.4C128.385 120.4 127.34 120.613 126.231 121.04C125.121 121.467 124.161 122.149 123.351 123.088C122.583 123.984 122.199 125.2 122.199 126.736ZM156.1 129.168C156.1 125.712 156.761 122.853 158.084 120.592C159.449 118.331 161.177 116.645 163.268 115.536C165.401 114.427 167.62 113.872 169.924 113.872V122.064C167.961 122.064 166.105 122.299 164.356 122.768C162.649 123.237 161.263 124.005 160.196 125.072C159.129 126.139 158.596 127.504 158.596 129.168H156.1ZM150.148 146V114H158.596V146H150.148ZM185.022 146L197.182 114H205.886L192.766 146H185.022ZM184.318 146L171.198 114H179.902L192.062 146H184.318ZM223.425 146.768C220.267 146.768 217.473 146.064 215.041 144.656C212.609 143.205 210.689 141.221 209.281 138.704C207.915 136.187 207.233 133.285 207.233 130C207.233 126.715 207.937 123.813 209.345 121.296C210.795 118.779 212.758 116.816 215.233 115.408C217.75 113.957 220.63 113.232 223.873 113.232C226.689 113.232 229.27 113.979 231.617 115.472C234.006 116.923 235.905 119.077 237.312 121.936C238.763 124.752 239.489 128.187 239.489 132.24H215.233L216.001 131.472C216.001 133.051 216.385 134.437 217.153 135.632C217.963 136.784 218.987 137.68 220.225 138.32C221.505 138.917 222.87 139.216 224.321 139.216C226.07 139.216 227.499 138.853 228.609 138.128C229.718 137.36 230.571 136.379 231.169 135.184L238.721 138.128C237.825 139.92 236.651 141.477 235.201 142.8C233.793 144.08 232.107 145.061 230.145 145.744C228.182 146.427 225.942 146.768 223.425 146.768ZM216.449 126.736L215.681 125.968H231.105L230.401 126.736C230.401 125.2 230.038 123.984 229.313 123.088C228.587 122.149 227.691 121.467 226.625 121.04C225.601 120.613 224.598 120.4 223.617 120.4C222.635 120.4 221.59 120.613 220.481 121.04C219.371 121.467 218.411 122.149 217.601 123.088C216.833 123.984 216.449 125.2 216.449 126.736ZM256.366 146.768C254.318 146.768 252.398 146.469 250.606 145.872C248.814 145.232 247.235 144.336 245.87 143.184C244.505 141.989 243.438 140.539 242.67 138.832L249.902 135.504C250.542 136.528 251.417 137.424 252.526 138.192C253.635 138.917 254.915 139.28 256.366 139.28C257.774 139.28 258.862 139.088 259.63 138.704C260.398 138.277 260.782 137.68 260.782 136.912C260.782 136.144 260.462 135.589 259.822 135.248C259.225 134.864 258.393 134.544 257.326 134.288L254.382 133.52C251.31 132.709 248.878 131.429 247.086 129.68C245.337 127.888 244.462 125.84 244.462 123.536C244.462 120.251 245.507 117.712 247.598 115.92C249.731 114.128 252.739 113.232 256.622 113.232C258.627 113.232 260.483 113.531 262.19 114.128C263.939 114.725 265.433 115.557 266.67 116.624C267.907 117.691 268.761 118.928 269.23 120.336L262.254 123.536C261.955 122.683 261.23 122 260.078 121.488C258.926 120.933 257.774 120.656 256.622 120.656C255.47 120.656 254.574 120.912 253.934 121.424C253.337 121.893 253.038 122.555 253.038 123.408C253.038 123.963 253.337 124.432 253.934 124.816C254.531 125.157 255.385 125.456 256.494 125.712L260.654 126.736C262.745 127.248 264.409 128.08 265.646 129.232C266.926 130.341 267.843 131.6 268.398 133.008C268.995 134.373 269.294 135.717 269.294 137.04C269.294 138.96 268.718 140.667 267.566 142.16C266.457 143.611 264.921 144.741 262.958 145.552C261.038 146.363 258.841 146.768 256.366 146.768ZM321.717 146L304.565 101.2H313.333L330.997 146H321.717ZM286.325 146L303.989 101.2H312.757L295.605 146H286.325ZM294.645 136.144V128.4H322.741V136.144H294.645ZM371.582 127.504L363.326 125.392L377.726 101.2H387.71L371.582 127.504ZM363.07 146V124.496H371.838V146H363.07ZM363.326 127.504L347.198 101.2H357.182L371.582 125.392L363.326 127.504ZM400.8 146.768C397.642 146.768 394.848 146.064 392.416 144.656C389.984 143.205 388.064 141.221 386.656 138.704C385.29 136.187 384.608 133.285 384.608 130C384.608 126.715 385.312 123.813 386.72 121.296C388.17 118.779 390.133 116.816 392.608 115.408C395.125 113.957 398.005 113.232 401.248 113.232C404.064 113.232 406.645 113.979 408.992 115.472C411.381 116.923 413.28 119.077 414.688 121.936C416.138 124.752 416.864 128.187 416.864 132.24H392.608L393.376 131.472C393.376 133.051 393.76 134.437 394.528 135.632C395.338 136.784 396.362 137.68 397.6 138.32C398.88 138.917 400.245 139.216 401.696 139.216C403.445 139.216 404.874 138.853 405.984 138.128C407.093 137.36 407.946 136.379 408.544 135.184L416.096 138.128C415.2 139.92 414.026 141.477 412.576 142.8C411.168 144.08 409.482 145.061 407.52 145.744C405.557 146.427 403.317 146.768 400.8 146.768ZM393.824 126.736L393.056 125.968H408.48L407.776 126.736C407.776 125.2 407.413 123.984 406.688 123.088C405.962 122.149 405.066 121.467 404 121.04C402.976 120.613 401.973 120.4 400.992 120.4C400.01 120.4 398.965 120.613 397.856 121.04C396.746 121.467 395.786 122.149 394.976 123.088C394.208 123.984 393.824 125.2 393.824 126.736ZM433.741 146.768C431.693 146.768 429.773 146.469 427.981 145.872C426.189 145.232 424.61 144.336 423.245 143.184C421.88 141.989 420.813 140.539 420.045 138.832L427.277 135.504C427.917 136.528 428.792 137.424 429.901 138.192C431.01 138.917 432.29 139.28 433.741 139.28C435.149 139.28 436.237 139.088 437.005 138.704C437.773 138.277 438.157 137.68 438.157 136.912C438.157 136.144 437.837 135.589 437.197 135.248C436.6 134.864 435.768 134.544 434.701 134.288L431.757 133.52C428.685 132.709 426.253 131.429 424.461 129.68C422.712 127.888 421.837 125.84 421.837 123.536C421.837 120.251 422.882 117.712 424.973 115.92C427.106 114.128 430.114 113.232 433.997 113.232C436.002 113.232 437.858 113.531 439.565 114.128C441.314 114.725 442.808 115.557 444.045 116.624C445.282 117.691 446.136 118.928 446.605 120.336L439.629 123.536C439.33 122.683 438.605 122 437.453 121.488C436.301 120.933 435.149 120.656 433.997 120.656C432.845 120.656 431.949 120.912 431.309 121.424C430.712 121.893 430.413 122.555 430.413 123.408C430.413 123.963 430.712 124.432 431.309 124.816C431.906 125.157 432.76 125.456 433.869 125.712L438.029 126.736C440.12 127.248 441.784 128.08 443.021 129.232C444.301 130.341 445.218 131.6 445.773 133.008C446.37 134.373 446.669 135.717 446.669 137.04C446.669 138.96 446.093 140.667 444.941 142.16C443.832 143.611 442.296 144.741 440.333 145.552C438.413 146.363 436.216 146.768 433.741 146.768Z" fill="#FA1239"/>
<path d="M49 159.25C78.6784 157.25 150.727 153.25 201.496 153.25C252.265 153.25 300.319 155.096 318 156.019" stroke="#FA1239" stroke-width="3"/>
<path d="M1 170.25C17.4712 168.211 76.0707 163.006 148.291 162.253C272.775 158.96 353.547 164.762 364 165.546" stroke="#FA1239" stroke-width="3"/>
</svg>
